<svg xmlns="http://www.w3.org/2000/svg" viewBox="0 0 720 360" font-family="ui-monospace, SFMono-Regular, Menlo, monospace" font-size="14">
  <rect width="720" height="360" fill="none"/>
  <g stroke="#0d0d0d" stroke-opacity="0.35" fill="none">
    <rect x="240" y="20" width="240" height="52" />
    <rect x="240" y="112" width="240" height="52" />
    <rect x="240" y="204" width="240" height="52" />
    <rect x="60" y="296" width="160" height="44" />
    <rect x="280" y="296" width="160" height="44" />
    <rect x="500" y="296" width="160" height="44" />
  </g>
  <g stroke="#0d0d0d" stroke-opacity="0.25">
    <line x1="360" y1="72" x2="360" y2="112" />
    <line x1="360" y1="164" x2="360" y2="204" />
    <line x1="360" y1="256" x2="140" y2="296" />
    <line x1="360" y1="256" x2="360" y2="296" />
    <line x1="360" y1="256" x2="580" y2="296" />
  </g>
  <g fill="#0d0d0d" text-anchor="middle">
    <text x="360" y="51">your application</text>
    <text x="360" y="143">agnostic BLE interface</text>
    <text x="360" y="235">runtime adapter</text>
  </g>
  <g fill="#0d0d0d" fill-opacity="0.65" text-anchor="middle" font-size="13">
    <text x="140" y="323">native</text>
    <text x="360" y="323">bridge</text>
    <text x="580" y="323">custom</text>
  </g>
  <rect x="240" y="112" width="240" height="52" fill="none" stroke="#a34a3a" stroke-opacity="0.9"/>
</svg>
